<?xml version="1.0" encoding="UTF-8" standalone="no"?>
<!DOCTYPE svg PUBLIC "-//W3C//DTD SVG 20010904//EN"
              "http://www.w3.org/TR/2001/REC-SVG-20010904/DTD/svg10.dtd">

<svg xmlns="http://www.w3.org/2000/svg"
     width="52px" height="60px"
     viewBox="0 0 522 599">
  <path id="Selection"
        fill="rgba(255,255,255,0.5)" stroke="rgba(0,0,0,0.5)" stroke-width="2"
        d="M 331.00,228.80
           C 331.00,228.80 379.00,247.75 379.00,247.75
             385.99,251.25 394.19,255.86 399.07,262.09
             404.92,269.54 405.94,278.94 407.27,288.00
             407.27,288.00 411.27,314.00 411.27,314.00
             411.27,314.00 423.16,398.00 423.16,398.00
             423.16,398.00 427.00,434.00 427.00,434.00
             427.00,434.00 427.00,444.00 427.00,444.00
             427.00,447.03 426.85,450.14 428.01,453.00
             431.21,460.91 445.78,470.84 453.00,475.67
             453.00,475.67 493.00,504.35 493.00,504.35
             500.38,510.07 511.78,519.87 516.20,528.00
             529.25,552.01 521.37,586.58 492.00,592.99
             483.35,594.87 470.88,595.96 462.00,596.00
             462.00,596.00 447.00,597.00 447.00,597.00
             447.00,597.00 426.00,597.00 426.00,597.00
             426.00,597.00 411.00,598.00 411.00,598.00
             411.00,598.00 345.00,598.00 345.00,598.00
             345.00,598.00 328.00,599.00 328.00,599.00
             328.00,599.00 160.00,599.00 160.00,599.00
             160.00,599.00 66.00,599.00 66.00,599.00
             66.00,599.00 51.00,598.00 51.00,598.00
             51.00,598.00 43.00,598.00 43.00,598.00
             25.48,597.79 7.29,585.91 1.75,569.00
             -0.21,563.04 -0.07,559.13 0.00,553.00
             0.15,541.02 7.19,531.77 14.59,523.00
             28.17,506.91 55.36,489.03 73.00,476.42
             79.77,471.58 95.15,460.40 98.15,453.00
             99.45,449.77 98.84,444.62 99.09,441.00
             99.09,441.00 101.28,416.00 101.28,416.00
             101.28,416.00 114.87,317.00 114.87,317.00
             116.84,302.87 119.38,276.48 126.47,265.00
             132.79,254.76 145.35,248.85 156.00,244.14
             156.00,244.14 189.00,229.58 189.00,229.58
             189.00,229.58 206.98,220.53 206.98,220.53
             208.75,219.40 211.63,217.43 211.66,215.07
             211.77,208.26 196.75,211.42 193.00,210.66
             186.20,209.28 184.38,202.92 182.89,197.00
             180.22,186.35 177.46,159.44 176.96,148.00
             176.66,141.04 175.25,139.08 176.43,131.00
             176.85,128.12 177.30,124.73 179.01,122.32
             181.12,119.35 184.64,118.12 186.39,113.99
             188.15,109.17 186.18,101.14 186.39,96.00
             187.45,81.26 192.38,66.17 202.62,55.18
             207.55,49.89 213.52,47.97 219.21,40.00
             224.95,31.95 224.93,23.18 229.32,15.00
             236.79,1.09 249.81,-0.16 264.00,0.00
             274.92,0.13 287.97,4.67 293.16,15.00
             296.37,21.39 293.92,24.82 301.09,36.00
             308.50,47.56 324.36,60.80 328.53,71.00
             333.58,83.37 330.13,97.38 333.52,110.00
             335.24,116.44 338.30,116.48 340.30,121.04
             342.08,125.09 342.05,131.59 342.00,136.00
             342.00,136.00 341.00,146.00 341.00,146.00
             341.00,146.00 341.00,155.00 341.00,155.00
             341.00,155.00 336.20,191.00 336.20,191.00
             334.91,197.58 332.37,208.12 326.82,212.30
             320.02,217.43 315.73,211.72 306.00,214.00
             312.08,220.90 322.51,225.37 331.00,228.80 Z
           M 250.00,19.08
           C 234.81,27.91 241.78,41.25 233.36,53.00
             225.31,64.25 203.81,72.89 203.04,92.00
             202.85,96.57 203.76,109.42 208.27,111.43
             210.53,112.78 214.58,111.68 217.00,111.43
             217.00,111.43 234.00,109.16 234.00,109.16
             251.73,108.26 269.27,107.10 287.00,109.16
             291.33,109.82 295.98,110.63 300.00,112.34
             302.81,113.53 306.86,116.08 309.96,115.58
             313.72,114.97 314.95,111.15 315.97,108.00
             318.08,101.47 319.89,93.62 317.44,87.00
             314.53,79.13 303.17,67.94 297.67,61.00
             284.56,44.48 284.67,40.61 275.48,27.00
             270.75,19.99 266.91,15.46 258.00,16.32
             255.24,16.94 252.47,17.65 250.00,19.08 Z
           M 315.96,143.24
           C 311.87,143.65 306.91,139.45 304.00,137.00
             298.10,132.01 295.36,129.74 288.00,127.05
             276.14,122.72 263.42,122.98 251.00,123.00
             242.07,123.01 228.84,125.09 221.00,129.41
             215.22,132.59 210.24,139.06 204.00,141.00
             200.17,142.20 196.86,141.31 193.00,141.00
             194.40,150.92 196.95,158.34 197.00,169.00
             197.02,173.00 196.85,181.41 199.16,184.69
             202.15,188.94 206.92,184.78 213.00,186.65
             222.33,189.53 227.76,200.82 227.99,210.00
             228.28,222.15 222.35,235.14 211.00,240.60
             211.00,240.60 194.00,245.44 194.00,245.44
             180.26,250.43 151.43,263.37 142.21,274.01
             136.40,280.72 136.11,289.72 134.34,298.00
             130.94,313.91 125.19,337.16 125.00,353.00
             124.84,367.11 122.62,382.20 119.58,396.00
             117.51,405.35 113.22,420.91 113.01,430.00
             112.54,450.76 124.68,455.32 141.00,463.26
             141.00,463.26 190.00,484.00 190.00,484.00
             199.01,487.06 210.47,492.23 220.00,490.00
             220.00,490.00 213.45,475.00 213.45,475.00
             213.45,475.00 222.00,460.00 222.00,460.00
             208.88,456.39 201.34,469.73 188.00,462.05
             182.25,458.73 176.71,452.71 172.00,448.00
             166.18,442.18 160.11,436.58 155.13,430.00
             152.11,426.01 147.86,420.06 147.22,415.00
             146.70,410.86 149.10,404.15 150.29,400.00
             150.29,400.00 158.33,373.00 158.33,373.00
             160.72,365.82 166.12,346.91 171.33,342.43
             176.34,338.13 181.43,342.56 180.83,350.00
             179.86,361.80 170.71,386.00 166.67,398.00
             165.37,401.84 160.61,412.56 162.11,415.91
             163.20,418.33 169.71,423.49 172.00,425.41
             179.50,431.71 192.16,443.79 202.00,444.39
             202.00,444.39 225.00,440.40 225.00,440.40
             227.82,439.87 232.29,439.86 235.00,440.40
             243.45,443.04 255.54,451.93 259.00,460.00
             274.27,453.05 277.30,439.42 295.00,439.01
             295.00,439.01 325.00,441.00 325.00,441.00
             329.48,440.94 331.87,440.64 336.00,438.67
             343.51,435.11 358.77,419.42 362.62,412.00
             365.53,406.39 361.66,401.52 359.69,396.00
             359.69,396.00 347.66,356.00 347.66,356.00
             346.16,351.33 340.09,339.05 346.15,336.08
             352.23,333.09 358.24,345.83 360.22,350.00
             360.22,350.00 377.67,398.00 377.67,398.00
             378.71,401.12 383.35,412.93 382.52,415.42
             381.70,417.88 373.28,425.72 371.00,428.00
             371.00,428.00 346.00,452.56 346.00,452.56
             342.18,455.78 337.06,460.06 332.00,460.79
             325.42,461.73 319.20,458.06 313.00,456.29
             311.25,456.03 307.19,454.95 305.64,456.29
             302.20,458.69 309.15,466.10 309.75,472.00
             310.40,478.34 305.00,483.78 302.00,489.00
             312.39,488.91 322.24,485.59 332.00,482.33
             332.00,482.33 375.00,465.85 375.00,465.85
             383.35,462.26 397.57,456.09 403.82,449.82
             410.35,443.26 412.19,433.93 411.99,425.00
             411.78,415.92 409.65,406.94 408.27,398.00
             408.27,398.00 400.42,346.00 400.42,346.00
             397.93,328.34 396.54,310.24 391.71,293.00
             389.83,286.30 388.01,278.59 383.32,273.29
             377.34,266.53 365.32,260.98 357.00,257.42
             357.00,257.42 318.00,241.58 318.00,241.58
             309.51,238.38 295.72,234.65 291.57,226.00
             289.93,222.59 289.59,215.82 289.75,212.00
             290.17,201.75 294.97,187.19 307.00,185.97
             311.08,185.55 313.83,187.25 316.81,185.31
             321.06,182.55 322.50,174.69 323.05,170.00
             323.05,170.00 324.92,157.00 324.92,157.00
             324.92,157.00 324.92,137.00 324.92,137.00
             320.18,139.68 319.68,142.88 315.96,143.24 Z
           M 386.00,479.75
           C 371.65,486.93 353.54,495.94 338.00,499.50
             329.49,501.45 320.70,501.99 312.00,502.00
             312.00,502.00 297.00,503.00 297.00,503.00
             297.00,503.00 281.00,503.00 281.00,503.00
             281.00,503.00 207.00,503.00 207.00,503.00
             185.83,502.75 166.91,493.56 148.00,485.14
             136.35,479.95 126.20,473.69 113.00,474.01
             102.12,474.28 92.57,483.18 84.00,489.29
             84.00,489.29 46.00,517.12 46.00,517.12
             38.39,522.92 30.46,528.56 24.33,536.00
             18.11,543.54 17.09,549.63 17.93,559.00
             18.27,562.79 18.40,565.67 20.70,568.96
             24.47,574.33 31.88,576.49 38.00,577.79
             47.10,579.72 74.51,581.99 84.00,582.04
             84.00,582.04 100.00,582.04 100.00,582.04
             100.00,582.04 112.00,583.00 112.00,583.00
             112.00,583.00 199.00,583.00 199.00,583.00
             199.00,583.00 214.00,584.00 214.00,584.00
             214.00,584.00 334.00,584.00 334.00,584.00
             334.00,584.00 349.00,583.00 349.00,583.00
             349.00,583.00 413.00,583.00 413.00,583.00
             413.00,583.00 428.00,582.00 428.00,582.00
             428.00,582.00 444.00,582.00 444.00,582.00
             452.31,581.90 476.06,579.68 484.00,577.88
             489.33,576.67 495.54,575.31 499.67,571.47
             504.70,566.80 506.23,557.60 505.96,551.00
             505.44,538.22 496.52,529.49 487.00,522.12
             487.00,522.12 434.00,485.67 434.00,485.67
             427.91,481.61 413.40,470.38 407.00,469.61
             402.34,470.62 391.15,477.18 386.00,479.75 Z" />
</svg>
